<svg xmlns="http://www.w3.org/2000/svg" viewBox="0 0 320 420"><defs><radialGradient id="b"><stop stop-color="#65412c"/><stop offset="1" stop-color="#17110e"/></radialGradient></defs><rect width="320" height="420" fill="url(#b)"/><circle cx="160" cy="169" r="73" fill="#b18463"/><path d="M89 155q15-101 71-101 56 0 71 101-33-50-71-50t-71 50" fill="#1f1a17"/><path d="M112 212q48 37 96 0l18 101q-66 56-132 0z" fill="#b76b32"/><path d="M118 210q42 151 84 0-4 133-42 158-38-25-42-158" fill="#181513"/><circle cx="134" cy="169" r="5" fill="#19100b"/><circle cx="186" cy="169" r="5" fill="#19100b"/><path d="M147 196q13 10 26 0" fill="none" stroke="#63351e" stroke-width="5"/><path d="M59 420v-53q101-79 202 0v53" fill="#563322"/><path d="M77 363h166" stroke="#c18b45" stroke-width="10"/><text x="160" y="405" text-anchor="middle" fill="#ead0a8" font-family="serif" font-size="18">Дворф III</text></svg>