<svg xmlns="http://www.w3.org/2000/svg" viewBox="0 0 320 420"><rect width="320" height="420" fill="#151313"/><circle cx="160" cy="171" r="74" fill="#8f6751"/><path d="M88 150q29-93 72-93t72 93q-35-33-72-33t-72 33" fill="#6d645d"/><path d="M109 213q51 34 102 0l14 99q-65 58-130 0z" fill="#8e7b6b"/><path d="M111 209q49 145 98 0-9 139-49 159-40-20-49-159" fill="#6c625b"/><path d="M117 165h30M173 165h30" stroke="#251b16" stroke-width="8"/><path d="M145 198h30" stroke="#54392e" stroke-width="5"/><path d="M61 420v-54q99-76 198 0v54" fill="#303b42"/><text x="160" y="405" text-anchor="middle" fill="#ddd1c2" font-family="serif" font-size="18">Дворф IV</text></svg>